<svg width="142" height="32" viewBox="0 0 142 32" fill="none" xmlns="http://www.w3.org/2000/svg">
<path fill-rule="evenodd" clip-rule="evenodd" d="M6.11292 8.13592C7.30745 7.89701 9.54365 7.97398 10.6993 8.3592L11.9038 8.76068C13.9232 9.43383 17.1159 9.36939 19.0923 8.57882L19.7258 8.32543C19.8572 8.27288 20.0001 8.36964 20.0001 8.51113V16.7813C20.0001 17.1084 19.8009 17.4026 19.4972 17.5241L18.3495 17.9831C16.8123 18.598 14.1069 18.6482 12.5362 18.1246L11.3318 17.7231C9.84591 17.2278 7.25651 17.1289 5.72069 17.436L4.23928 17.7323C4.11553 17.7571 4.00006 17.6624 4.00006 17.5362V8.72245C4.00006 8.62712 4.06735 8.54503 4.16084 8.52634L6.11292 8.13592ZM2.00006 8.72245C2.00006 7.67375 2.74027 6.77084 3.76861 6.56518L5.72069 6.17476C6.30889 6.05712 7.90496 5.99905 8.50006 6C9.45878 6.00153 10.415 6.15624 11.3318 6.46184L12.5362 6.86331C14.1069 7.38687 16.8123 7.33676 18.3495 6.72187L18.983 6.46848C20.4281 5.89044 22.0001 6.95471 22.0001 8.51113V16.7813C22.0001 17.9262 21.303 18.9558 20.24 19.381L19.0923 19.8401C17.1159 20.6307 13.9232 20.6951 11.9038 20.022L10.6993 19.6205C9.54365 19.2353 7.30745 19.1583 6.11292 19.3972L4.63152 19.6935C4.41724 19.7363 4.20522 19.7466 4.00006 19.7282V24.9999C4.00006 25.5522 3.55235 25.9999 3.00006 25.9999C2.44778 25.9999 2.00006 25.5522 2.00006 24.9999V8.72245Z" fill="#F2F5FF"/>
<path d="M47.264 25H44.192L41.12 17.464H36.584V25H33.752V6.688H41.12C42.912 6.688 44.328 7.136 45.368 8.032C46.408 8.912 46.928 10.24 46.928 12.016C46.928 13.216 46.656 14.24 46.112 15.088C45.568 15.936 44.816 16.56 43.856 16.96L47.264 25ZM36.584 14.992H40.736C41.824 14.992 42.656 14.744 43.232 14.248C43.824 13.752 44.12 13.032 44.12 12.088C44.12 11.176 43.824 10.472 43.232 9.976C42.656 9.48 41.824 9.232 40.736 9.232H36.584V14.992Z" fill="#F2F5FF"/>
<path d="M54.7003 25.264C53.4043 25.264 52.2523 24.968 51.2443 24.376C50.2363 23.768 49.4523 22.944 48.8923 21.904C48.3323 20.848 48.0523 19.672 48.0523 18.376C48.0523 17.16 48.3003 16.016 48.7963 14.944C49.3083 13.872 50.0603 13.008 51.0523 12.352C52.0443 11.696 53.2363 11.368 54.6283 11.368C55.8123 11.368 56.9003 11.624 57.8923 12.136C58.9003 12.648 59.7083 13.416 60.3163 14.44C60.9243 15.448 61.2283 16.68 61.2283 18.136V18.856H50.7403C50.7883 19.384 50.9163 19.864 51.1243 20.296C51.4443 21.112 51.9243 21.76 52.5643 22.24C53.2043 22.72 53.9323 22.96 54.7483 22.96C55.5963 22.96 56.3243 22.744 56.9323 22.312C57.5403 21.864 57.9803 21.296 58.2523 20.608H61.0123C60.5643 21.984 59.8043 23.104 58.7323 23.968C57.6763 24.832 56.3323 25.264 54.7003 25.264ZM58.4923 16.72C58.4283 16.224 58.2923 15.8 58.0843 15.448C57.7643 14.84 57.3003 14.376 56.6923 14.056C56.1003 13.72 55.4443 13.552 54.7243 13.552C53.9723 13.552 53.3083 13.72 52.7323 14.056C52.1563 14.376 51.7003 14.84 51.3643 15.448C51.1723 15.768 51.0203 16.192 50.9083 16.72H58.4923Z" fill="#F2F5FF"/>
<path d="M68.6134 25H66.4774L61.5574 11.632H64.4134L67.5334 20.776L70.7254 11.632H73.5814L68.6134 25Z" fill="#F2F5FF"/>
<path d="M80.6171 25.264C79.3211 25.264 78.1611 24.968 77.1371 24.376C76.1291 23.784 75.3371 22.96 74.7611 21.904C74.2011 20.832 73.9211 19.616 73.9211 18.256C73.9211 16.928 74.2011 15.744 74.7611 14.704C75.3371 13.664 76.1291 12.848 77.1371 12.256C78.1611 11.664 79.3211 11.368 80.6171 11.368C81.9131 11.368 83.0651 11.664 84.0731 12.256C85.0971 12.848 85.8891 13.664 86.4491 14.704C87.0251 15.744 87.3131 16.928 87.3131 18.256C87.3131 19.6 87.0331 20.808 86.4731 21.88C85.9131 22.936 85.1211 23.768 84.0971 24.376C83.0891 24.968 81.9291 25.264 80.6171 25.264ZM80.6171 22.96C81.3851 22.96 82.0731 22.76 82.6811 22.36C83.2891 21.96 83.7611 21.4 84.0971 20.68C84.4491 19.96 84.6251 19.152 84.6251 18.256C84.6251 17.392 84.4491 16.616 84.0971 15.928C83.7611 15.224 83.2891 14.672 82.6811 14.272C82.0731 13.872 81.3851 13.672 80.6171 13.672C79.8491 13.672 79.1611 13.872 78.5531 14.272C77.9451 14.656 77.4651 15.2 77.1131 15.904C76.7771 16.592 76.6091 17.376 76.6091 18.256C76.6091 19.168 76.7771 19.984 77.1131 20.704C77.4651 21.408 77.9451 21.96 78.5531 22.36C79.1611 22.76 79.8491 22.96 80.6171 22.96Z" fill="#F2F5FF"/>
<path d="M92.2378 25C91.1978 25 90.4138 24.76 89.8858 24.28C89.3578 23.8 89.0938 22.992 89.0938 21.856V6.688H91.7338V21.208C91.7338 21.768 91.8218 22.168 91.9978 22.408C92.1738 22.648 92.5338 22.768 93.0778 22.768H93.8218V25H92.2378Z" fill="#F2F5FF"/>
<path d="M97.9193 25H95.2793V11.632H97.9193V25ZM96.5993 9.76C96.1193 9.76 95.7033 9.6 95.3513 9.28C94.9993 8.96 94.8233 8.56 94.8233 8.08C94.8233 7.6 94.9993 7.2 95.3513 6.88C95.7033 6.56 96.1193 6.4 96.5993 6.4C97.0953 6.4 97.5113 6.56 97.8473 6.88C98.1993 7.2 98.3753 7.6 98.3753 8.08C98.3753 8.56 98.1993 8.96 97.8473 9.28C97.5113 9.6 97.0953 9.76 96.5993 9.76Z" fill="#F2F5FF"/>
<path d="M106.364 25.264C105.068 25.264 103.916 24.968 102.908 24.376C101.916 23.784 101.14 22.96 100.58 21.904C100.02 20.832 99.7398 19.616 99.7398 18.256C99.7398 16.928 100.02 15.744 100.58 14.704C101.14 13.664 101.916 12.848 102.908 12.256C103.916 11.664 105.068 11.368 106.364 11.368C107.916 11.368 109.228 11.768 110.3 12.568C111.388 13.368 112.092 14.44 112.412 15.784H109.58C109.34 15.096 108.94 14.56 108.38 14.176C107.82 13.792 107.148 13.6 106.364 13.6C105.596 13.6 104.916 13.8 104.324 14.2C103.732 14.584 103.268 15.128 102.932 15.832C102.596 16.536 102.428 17.344 102.428 18.256C102.428 19.2 102.596 20.032 102.932 20.752C103.268 21.472 103.732 22.032 104.324 22.432C104.916 22.832 105.596 23.032 106.364 23.032C107.196 23.032 107.9 22.816 108.476 22.384C109.068 21.936 109.46 21.344 109.652 20.608H112.508C112.204 22.048 111.492 23.184 110.372 24.016C109.268 24.848 107.932 25.264 106.364 25.264Z" fill="#F2F5FF"/>
<path d="M120.308 25.264C119.012 25.264 117.852 24.968 116.828 24.376C115.82 23.784 115.028 22.96 114.452 21.904C113.892 20.832 113.612 19.616 113.612 18.256C113.612 16.928 113.892 15.744 114.452 14.704C115.028 13.664 115.82 12.848 116.828 12.256C117.852 11.664 119.012 11.368 120.308 11.368C121.604 11.368 122.756 11.664 123.764 12.256C124.788 12.848 125.58 13.664 126.14 14.704C126.716 15.744 127.004 16.928 127.004 18.256C127.004 19.6 126.724 20.808 126.164 21.88C125.604 22.936 124.812 23.768 123.788 24.376C122.78 24.968 121.62 25.264 120.308 25.264ZM120.308 22.96C121.076 22.96 121.764 22.76 122.372 22.36C122.98 21.96 123.452 21.4 123.788 20.68C124.14 19.96 124.316 19.152 124.316 18.256C124.316 17.392 124.14 16.616 123.788 15.928C123.452 15.224 122.98 14.672 122.372 14.272C121.764 13.872 121.076 13.672 120.308 13.672C119.54 13.672 118.852 13.872 118.244 14.272C117.636 14.656 117.156 15.2 116.804 15.904C116.468 16.592 116.3 17.376 116.3 18.256C116.3 19.168 116.468 19.984 116.804 20.704C117.156 21.408 117.636 21.96 118.244 22.36C118.852 22.76 119.54 22.96 120.308 22.96Z" fill="#F2F5FF"/>
<path d="M128.832 25V11.632H131.472V13.504C132.064 12.72 132.656 12.168 133.248 11.848C133.84 11.528 134.512 11.368 135.264 11.368C137.264 11.368 138.616 12.088 139.32 13.528C139.592 14.056 139.76 14.6 139.824 15.16C139.888 15.704 139.92 16.36 139.92 17.128V25H137.28V17.104C137.28 15.744 137.048 14.8 136.584 14.272C136.152 13.824 135.528 13.6 134.712 13.6C133.736 13.6 132.984 13.904 132.456 14.512C132.104 14.896 131.848 15.416 131.688 16.072C131.544 16.728 131.472 17.616 131.472 18.736V25H128.832Z" fill="#F2F5FF"/>
</svg>
